<svg width="571" height="93" viewBox="0 0 571 93" fill="none" xmlns="http://www.w3.org/2000/svg">
<path d="M13.6635 87.16H60.7675L33.6315 12.536L5.0875 91H0.9915L33.6315 1.272L66.2715 91H13.6635V87.16ZM134.739 87.16V91H81.2345V1.39999H85.0745V87.16H134.739ZM181.104 47.992L179.184 44.664L186.352 40.568C192.24 37.3253 195.184 32.1627 195.184 25.08C195.184 11.8533 185.114 5.24 164.976 5.24H153.2V91H149.36V1.39999H164.976C176.24 1.39999 184.73 3.49066 190.448 7.672C196.165 11.768 199.024 17.5707 199.024 25.08C199.024 33.6133 195.44 39.8853 188.272 43.896L181.104 47.992ZM270.495 91H266.655V46.2H220.575V91H216.735V1.39999H220.575V42.36H266.655V1.39999H270.495V91ZM298.164 87.16H345.268L318.132 12.536L289.588 91H285.492L318.132 1.272L350.771 91H298.164V87.16ZM386.215 91H365.735V1.39999H381.351C392.615 1.39999 401.105 3.49066 406.823 7.672C412.54 11.768 415.399 17.5707 415.399 25.08C415.399 33.6133 411.815 39.8853 404.647 43.896C415.057 47.8213 420.263 55.2027 420.263 66.04C420.263 73.72 417.447 79.8213 411.815 84.344C406.183 88.7813 397.649 91 386.215 91ZM386.215 87.16C390.225 87.16 393.895 86.8613 397.223 86.264C400.551 85.5813 403.708 84.5147 406.695 83.064C409.767 81.528 412.156 79.3093 413.863 76.408C415.569 73.5067 416.423 70.0507 416.423 66.04C416.423 56.9093 412.028 50.7227 403.239 47.48L395.559 44.664L402.727 40.568C408.615 37.3253 411.559 32.1627 411.559 25.08C411.559 11.8533 401.489 5.24 381.351 5.24H369.575V87.16H386.215ZM489.652 82.68C484.958 89.08 477.364 92.28 466.868 92.28C456.372 92.28 448.777 89.08 444.083 82.68C439.39 76.1947 437.044 66.1253 437.044 52.472V39.928C437.044 26.2747 439.39 16.248 444.083 9.848C448.777 3.36266 456.372 0.119995 466.868 0.119995C477.364 0.119995 484.958 3.36266 489.652 9.848C494.345 16.248 496.692 26.2747 496.692 39.928V52.472C496.692 66.1253 494.345 76.1947 489.652 82.68ZM477.62 5.62399C474.633 4.51466 471.049 3.96 466.868 3.96C462.686 3.96 459.102 4.51466 456.116 5.62399C453.129 6.64799 450.441 8.44 448.052 11C445.662 13.56 443.87 17.272 442.676 22.136C441.481 26.9147 440.884 32.8453 440.884 39.928V52.472C440.884 59.5547 441.481 65.528 442.676 70.392C443.87 75.1707 445.662 78.84 448.052 81.4C450.441 83.96 453.129 85.7947 456.116 86.904C459.102 87.928 462.686 88.44 466.868 88.44C471.049 88.44 474.633 87.928 477.62 86.904C480.606 85.7947 483.294 83.96 485.684 81.4C488.073 78.84 489.865 75.1707 491.06 70.392C492.254 65.528 492.852 59.5547 492.852 52.472V39.928C492.852 32.8453 492.254 26.9147 491.06 22.136C489.865 17.272 488.073 13.56 485.684 11C483.294 8.44 480.606 6.64799 477.62 5.62399ZM516.547 23.544C516.547 15.2667 518.637 9.29333 522.819 5.62399C527 1.95466 533.784 0.119995 543.171 0.119995C549.741 0.119995 555.032 1.82666 559.043 5.24C563.053 8.65333 565.955 13.8587 567.747 20.856L555.843 29.816H549.571L563.395 19.448C561.603 13.7307 559 9.71999 555.587 7.41599C552.259 5.112 548.12 3.96 543.171 3.96C539.757 3.96 536.856 4.17333 534.467 4.6C532.163 5.02666 529.816 5.88 527.427 7.16C525.123 8.35466 523.373 10.3173 522.179 13.048C520.984 15.7787 520.387 19.2773 520.387 23.544C520.387 27.2987 522.093 30.6267 525.507 33.528C529.005 36.4293 533.229 38.904 538.179 40.952C543.128 43 548.077 45.0907 553.027 47.224C558.061 49.3573 562.285 52.088 565.699 55.416C569.197 58.744 570.947 62.584 570.947 66.936C570.947 75.4693 568.813 81.8267 564.547 86.008C560.365 90.1893 553.155 92.28 542.915 92.28C534.552 92.28 527.981 90.616 523.203 87.288C518.424 83.8747 515.139 78.6267 513.347 71.544L516.931 70.008C518.637 76.92 521.539 81.7413 525.635 84.472C529.816 87.1173 535.576 88.44 542.915 88.44C551.107 88.44 557.165 86.8613 561.091 83.704C565.101 80.5467 567.107 74.9573 567.107 66.936C567.107 63.1813 565.357 59.8533 561.859 56.952C558.445 54.0507 554.221 51.576 549.187 49.528C544.237 47.48 539.288 45.3893 534.339 43.256C529.389 41.1227 525.165 38.392 521.667 35.064C518.253 31.736 516.547 27.896 516.547 23.544Z" fill="black"/>
</svg>
